<?xml version="1.0" encoding="UTF-8"?>
<svg xmlns="http://www.w3.org/2000/svg" xmlns:xlink="http://www.w3.org/1999/xlink" width="384pt" height="384pt" viewBox="0 0 384 384" version="1.1">
<g id="surface33450">
<path style=" stroke:none;fill-rule:nonzero;fill:rgb(63.921569%,12.941176%,29.019608%);fill-opacity:1;" d="M 320 48 L 64 48 C 46.351562 48 32 62.351562 32 80 L 32 304 C 32 321.648438 46.351562 336 64 336 L 320 336 C 337.648438 336 352 321.648438 352 304 L 352 80 C 352 62.351562 337.648438 48 320 48 Z M 144 244.894531 L 144 139.105469 C 144 130.59375 153.199219 125.246094 160.59375 129.472656 L 250.574219 182.367188 C 258.03125 186.625 258.03125 197.359375 250.574219 201.617188 L 160.59375 254.511719 C 153.199219 258.753906 144 253.40625 144 244.894531 Z M 144 244.894531 "/>
</g>
</svg>
