<?xml version="1.0" encoding="UTF-8"?>
<svg xmlns="http://www.w3.org/2000/svg" xmlns:xlink="http://www.w3.org/1999/xlink" width="384pt" height="384pt" viewBox="0 0 384 384" version="1.1">
<g id="surface29106">
<path style=" stroke:none;fill-rule:nonzero;fill:rgb(63.921569%,12.941176%,29.019608%);fill-opacity:1;" d="M 96 32 C 78.492188 32 64 46.492188 64 64 L 64 144 C 46.320312 144 32 158.320312 32 176 L 32 256 C 32 273.679688 46.320312 288 64 288 L 64 320 C 64 337.507812 78.492188 352 96 352 L 288 352 C 305.507812 352 320 337.507812 320 320 L 320 118.625 C 320 114.382812 318.3125 110.3125 315.3125 107.3125 L 244.6875 36.6875 C 241.6875 33.6875 237.617188 32 233.375 32 Z M 96 64 L 224 64 L 224 112 C 224 120.832031 231.167969 128 240 128 L 288 128 L 288 144 L 96 144 Z M 64 176 L 112 176 L 112 192 L 96 192 L 96 256 L 80 256 L 80 192 L 64 192 Z M 128.40625 176 L 148.375 176 L 159.96875 203.46875 L 171.59375 176 L 191.53125 176 L 171.25 215.65625 L 192 256 L 171.8125 256 L 159.96875 228.03125 L 148.1875 256 L 128 256 L 148.71875 215.65625 Z M 208 176 L 256 176 L 256 192 L 240 192 L 240 256 L 224 256 L 224 192 L 208 192 Z M 96 288 L 288 288 L 288 320 L 96 320 Z M 96 288 "/>
</g>
</svg>
