<?xml version="1.0" encoding="UTF-8"?>
<svg xmlns="http://www.w3.org/2000/svg" xmlns:xlink="http://www.w3.org/1999/xlink" width="384pt" height="384pt" viewBox="0 0 384 384" version="1.1">
<g id="surface250482">
<path style=" stroke:none;fill-rule:nonzero;fill:rgb(63.921569%,12.941176%,29.019608%);fill-opacity:1;" d="M 210.753906 32 L 96 32 C 78.398438 32 64 46.398438 64 64 L 64 320 C 64 337.601562 78.398438 352 96 352 L 288 352 C 305.601562 352 320 337.601562 320 320 L 320 141.246094 C 320 132.769531 316.625 124.625 310.625 118.625 L 233.375 41.375 C 227.375 35.375 219.230469 32 210.753906 32 Z M 160 274.433594 L 160 205.550781 C 160 199.585938 166.511719 195.902344 171.632812 198.960938 L 229.023438 233.390625 C 234 236.367188 234 243.585938 229.023438 246.558594 L 171.632812 280.992188 C 166.511719 284.097656 160 280.398438 160 274.433594 Z M 208 144 L 208 56 L 296 144 Z M 208 144 "/>
</g>
</svg>
