<?xml version="1.0" encoding="UTF-8"?>
<svg xmlns="http://www.w3.org/2000/svg" xmlns:xlink="http://www.w3.org/1999/xlink" width="384pt" height="384pt" viewBox="0 0 384 384" version="1.1">
<g id="surface29998">
<path style=" stroke:none;fill-rule:nonzero;fill:rgb(63.921569%,12.941176%,29.019608%);fill-opacity:1;" d="M 96 32 C 78.492188 32 64 46.492188 64 64 L 64 144 C 46.320312 144 32 158.320312 32 176 L 32 256 C 32 273.679688 46.320312 288 64 288 L 64 320 C 64 337.507812 78.492188 352 96 352 L 288 352 C 305.507812 352 320 337.507812 320 320 L 320 118.625 C 320 114.382812 318.3125 110.3125 315.3125 107.3125 L 244.6875 36.6875 C 241.6875 33.6875 237.617188 32 233.375 32 Z M 96 64 L 224 64 L 224 112 C 224 120.832031 231.167969 128 240 128 L 288 128 L 288 144 L 96 144 Z M 64 176 L 88 176 C 101.246094 176 112 186.753906 112 200 C 112 213.246094 101.246094 224 88 224 L 80 224 L 80 256 L 64 256 Z M 208 176 L 256 176 L 256 192 L 224 192 L 224 208 L 249.59375 208 L 249.59375 224 L 224 224 L 224 256 L 208 256 Z M 128 176.375 L 154.0625 176.375 C 179.375 176.375 192 191.597656 192 210.0625 L 192 222.40625 C 192 241.09375 179.347656 256 153.84375 256 L 128 256 Z M 80 192 L 80 208 L 88 208 C 92.414062 208 96 204.414062 96 200 C 96 195.585938 92.414062 192 88 192 Z M 144 192.375 L 144 240 L 153.84375 240 C 163.957031 240 176 236.933594 176 222.40625 L 176 210.0625 C 176 195.4375 164.078125 192.375 154.0625 192.375 Z M 96 288 L 288 288 L 288 320 L 96 320 Z M 96 288 "/>
</g>
</svg>
