<?xml version="1.0" encoding="UTF-8"?>
<svg xmlns="http://www.w3.org/2000/svg" xmlns:xlink="http://www.w3.org/1999/xlink" width="500pt" height="500pt" viewBox="0 0 500 500" version="1.1">
<g id="surface11705">
<path style=" stroke:none;fill-rule:nonzero;fill:rgb(63.921569%,12.941176%,29.019608%);fill-opacity:1;" d="M 275 0 C 261.191406 0 250 11.191406 250 25 L 250 200.175781 C 265.78125 200.015625 282.539062 200 300 200 L 300 25 C 300 11.191406 288.808594 0 275 0 Z M 345 30 C 331.191406 30 320 41.191406 320 55 L 320 200 C 325.53125 200 330 204.46875 330 210 C 330 215.53125 325.53125 220 320 220 L 310.273438 220 C 210.074219 220 133.835938 219.902344 111.347656 243.203125 C 100.828125 254.113281 100 271.988281 100 303.867188 L 100 417.421875 C 100 463.023438 127.109375 500 172.890625 500 L 302.636719 500 C 331.046875 500 361.652344 485.636719 369.550781 458.457031 L 395.9375 367.617188 C 398.246094 359.898438 401.886719 341.304688 398.828125 323.925781 C 397.507812 316.394531 395.335938 310.050781 392.714844 304.53125 C 381.894531 284.652344 363.859375 280.046875 350.078125 278.476562 L 347.65625 278.164062 L 225.917969 261.015625 C 222.917969 271.003906 222.289062 284.515625 226.699219 295.195312 C 229.878906 302.886719 235.273438 308.039062 242.714844 310.507812 L 309.257812 334.902344 C 314.449219 336.792969 317.113281 342.535156 315.214844 347.714844 C 313.734375 351.765625 309.890625 354.277344 305.820312 354.277344 C 305.769531 354.277344 305.714844 354.257812 305.664062 354.257812 C 305.445312 354.335938 305.289062 354.5 305.058594 354.570312 C 304.5 354.742188 249.433594 371.867188 240.742188 421.71875 C 239.882812 426.578125 235.667969 430 230.898438 430 C 230.328125 430 229.75 429.945312 229.160156 429.84375 C 223.71875 428.894531 220.085938 423.722656 221.035156 418.28125 C 228.003906 378.292969 257.179688 355.886719 277.910156 344.707031 L 236.113281 329.375 C 223.394531 325.15625 213.652344 315.933594 208.222656 302.832031 C 200.023438 283.023438 203.6875 259.246094 210.566406 245.527344 C 212.488281 241.6875 216.609375 239.488281 220.898438 240.097656 L 352.34375 258.59375 C 358.84375 259.332031 364.667969 260.644531 370.019531 262.34375 L 370.019531 55 C 370.007812 41.191406 358.808594 30 345 30 Z M 205 40 C 191.191406 40 180 51.191406 180 65 L 180 202.558594 C 195.25 201.46875 211.960938 200.847656 230 200.488281 L 230 65 C 230 51.191406 218.808594 40 205 40 Z M 135 90 C 121.191406 90 110 101.191406 110 115 L 110 215.136719 C 123.191406 210.015625 140.03125 206.632812 160 204.394531 L 160 115 C 160 101.191406 148.808594 90 135 90 Z M 135 90 "/>
</g>
</svg>
