<?xml version="1.0" encoding="UTF-8"?>
<svg xmlns="http://www.w3.org/2000/svg" xmlns:xlink="http://www.w3.org/1999/xlink" width="384pt" height="384pt" viewBox="0 0 384 384" version="1.1">
<g id="surface36941">
<path style=" stroke:none;fill-rule:nonzero;fill:rgb(63.921569%,12.941176%,29.019608%);fill-opacity:1;" d="M 192 32 C 173.023438 32 152.667969 59.058594 140.125 101.84375 C 138.636719 106.914062 142.59375 112 147.875 112 L 236.125 112 C 241.40625 112 245.347656 106.914062 243.875 101.84375 C 231.332031 59.058594 210.976562 32 192 32 Z M 129.0625 44.9375 C 100.308594 57.289062 75.980469 77.863281 58.84375 103.65625 C 56.492188 107.191406 59.148438 112 63.40625 112 L 94.875 112 C 101.691406 112 104.761719 109.382812 105.625 105.78125 C 111.289062 82.148438 119.285156 61.5625 129.0625 44.9375 Z M 254.9375 44.9375 C 264.714844 61.5625 272.710938 82.164062 278.375 105.78125 C 279.238281 109.382812 282.429688 112 286.125 112 L 320.53125 112 C 324.789062 112 327.507812 107.191406 325.15625 103.65625 C 308.019531 77.863281 283.691406 57.289062 254.9375 44.9375 Z M 43.5 144 C 41.066406 144 38.859375 145.585938 38.1875 147.90625 C 34.171875 161.921875 32 176.71875 32 192 C 32 207.28125 34.171875 222.078125 38.1875 236.09375 C 38.859375 238.414062 41.066406 240 43.5 240 L 90.0625 240 C 94.796875 240 98.402344 235.953125 97.9375 231.25 C 96.707031 218.640625 96 205.566406 96 192 C 96 178.433594 96.691406 165.359375 97.9375 152.75 C 98.402344 148.046875 94.796875 144 90.0625 144 Z M 138.375 144 C 134.3125 144 130.824219 146.96875 130.34375 151 C 128.839844 163.992188 128 177.710938 128 192 C 128 206.289062 128.839844 220.007812 130.34375 233 C 130.824219 237.03125 134.3125 240 138.375 240 L 245.625 240 C 249.6875 240 253.175781 237.03125 253.65625 233 C 255.160156 220.007812 256 206.289062 256 192 C 256 177.710938 255.160156 163.992188 253.65625 151 C 253.175781 146.96875 249.6875 144 245.625 144 Z M 293.9375 144 C 289.203125 144 285.597656 148.046875 286.0625 152.75 C 287.292969 165.359375 288 178.433594 288 192 C 288 205.566406 287.308594 218.640625 286.0625 231.25 C 285.597656 235.953125 289.203125 240 293.9375 240 L 340.5 240 C 342.933594 240 345.140625 238.414062 345.8125 236.09375 C 349.828125 222.078125 352 207.28125 352 192 C 352 176.71875 349.828125 161.921875 345.8125 147.90625 C 345.140625 145.585938 342.933594 144 340.5 144 Z M 63.46875 272 C 59.210938 272 56.492188 276.808594 58.84375 280.34375 C 75.980469 306.136719 100.308594 326.710938 129.0625 339.0625 C 119.285156 322.4375 111.289062 301.835938 105.625 278.21875 C 104.761719 274.617188 101.570312 272 97.875 272 Z M 147.875 272 C 142.59375 272 138.652344 277.085938 140.125 282.15625 C 152.667969 324.941406 173.023438 352 192 352 C 210.976562 352 231.332031 324.941406 243.875 282.15625 C 245.363281 277.085938 241.40625 272 236.125 272 Z M 289.125 272 C 282.308594 272 279.238281 274.617188 278.375 278.21875 C 272.710938 301.851562 264.714844 322.4375 254.9375 339.0625 C 283.691406 326.710938 308.019531 306.136719 325.15625 280.34375 C 327.507812 276.808594 324.851562 272 320.59375 272 Z M 289.125 272 "/>
</g>
</svg>
