<?xml version="1.0" encoding="UTF-8"?>
<svg xmlns="http://www.w3.org/2000/svg" xmlns:xlink="http://www.w3.org/1999/xlink" width="384pt" height="384pt" viewBox="0 0 384 384" version="1.1">
<g id="surface32105">
<path style=" stroke:none;fill-rule:nonzero;fill:rgb(63.921569%,12.941176%,29.019608%);fill-opacity:1;" d="M 210.753906 32 L 96 32 C 78.398438 32 64 46.398438 64 64 L 64 320 C 64 337.601562 78.398438 352 96 352 L 288 352 C 305.601562 352 320 337.601562 320 320 L 320 141.246094 C 320 132.769531 316.625 124.625 310.625 118.625 L 233.375 41.375 C 227.375 35.375 219.230469 32 210.753906 32 Z M 224 208 L 208 208 L 208 270.289062 C 208 286.222656 197.105469 301.007812 181.375 303.566406 C 161.328125 306.816406 144 291.441406 144 272 C 144 254.320312 158.320312 240 176 240 L 176 192 C 176 183.167969 183.167969 176 192 176 L 224 176 C 232.832031 176 240 183.167969 240 192 C 240 200.832031 232.832031 208 224 208 Z M 208 144 L 208 56 L 296 144 Z M 208 144 "/>
</g>
</svg>
